<svg width="127" height="40" viewBox="0 0 127 40" fill="none" xmlns="http://www.w3.org/2000/svg">
<path d="M5.16742 38.7308V23.6983H16.3318V22.4489H5.16742V4.64781H19.1904V3.39844H0V39.9801H21.2794V38.7308H5.16742Z" fill="#231F20"/>
<path d="M31.8342 0V39.98H26.6667V2.9985L31.8342 0Z" fill="#231F20"/>
<path d="M42.3588 0V39.98H37.1914V2.9985L42.3588 0Z" fill="#231F20"/>
<path d="M47.7461 39.9803V16.8818L52.8535 13.8833V39.9803H47.7461Z" fill="#231F20"/>
<path d="M96.4917 26.8266L76.5716 26.9365C76.6816 29.0255 77.1214 30.9845 77.901 32.8136C78.6806 34.6327 79.79 36.1219 81.2093 37.2513C82.6286 38.3808 84.2978 38.9505 86.2068 38.9505C88.4357 38.9505 90.3347 38.3108 91.914 37.0215C93.5032 35.7221 94.6726 34.1429 95.4322 32.2738L96.1119 32.3238C95.3722 34.4427 94.0729 36.2518 92.1738 37.7611C90.2748 39.2503 87.846 40 84.8975 40C81.9489 40 79.4402 39.4003 77.4212 38.1709C75.3822 36.9415 73.863 35.3623 72.8635 33.3833C71.864 31.4143 71.3442 29.3053 71.3442 27.0364C71.3442 24.7676 71.874 22.4987 72.9334 20.4098C73.9929 18.3208 75.5421 16.6217 77.5811 15.3223C79.6201 14.013 82.0389 13.3633 84.8575 13.3633C87.6761 13.3633 89.845 14.003 91.5841 15.3023C93.3232 16.5917 94.5726 18.1909 95.3422 20.1099C96.1119 22.019 96.4917 23.978 96.4917 25.957V26.8465V26.8266ZM80.4897 15.7521C79.1603 16.8715 78.1808 18.3408 77.5212 20.1699C76.8515 21.999 76.5516 23.958 76.5816 26.0469L92.0139 25.937C92.0139 22.2488 91.5441 19.3503 90.6046 17.2413C89.6651 15.1424 87.916 14.0829 85.3372 14.0829C83.4282 14.0829 81.809 14.6426 80.4897 15.7521Z" fill="#231F20"/>
<path d="M126.487 26.8266L106.567 26.9365C106.677 29.0255 107.116 30.9845 107.896 32.8136C108.676 34.6327 109.785 36.1219 111.204 37.2513C112.624 38.3808 114.293 38.9505 116.202 38.9505C118.431 38.9505 120.32 38.3108 121.909 37.0215C123.498 35.7221 124.668 34.1429 125.427 32.2738L126.107 32.3238C125.367 34.4427 124.068 36.2518 122.169 37.7611C120.27 39.2503 117.841 40 114.893 40C111.944 40 109.435 39.4003 107.416 38.1709C105.377 36.9415 103.858 35.3623 102.859 33.3833C101.849 31.4143 101.339 29.3053 101.339 27.0364C101.339 24.7676 101.869 22.4987 102.929 20.4098C103.988 18.3208 105.537 16.6217 107.576 15.3223C109.615 14.013 112.034 13.3633 114.853 13.3633C117.671 13.3633 119.84 14.003 121.579 15.3023C123.318 16.5917 124.568 18.1909 125.337 20.1099C126.107 22.019 126.487 23.978 126.487 25.957V26.8465V26.8266ZM110.485 15.7521C109.155 16.8715 108.176 18.3408 107.516 20.1699C106.847 21.999 106.547 23.958 106.577 26.0469L122.009 25.937C122.009 22.2488 121.539 19.3503 120.6 17.2413C119.66 15.1424 117.911 14.0829 115.332 14.0829C113.423 14.0829 111.804 14.6426 110.485 15.7521Z" fill="#231F20"/>
<path d="M50.3049 3.66797C50.2249 6.27666 48.106 8.37562 45.4873 8.42559C48.106 8.47557 50.2249 10.5845 50.3049 13.2032C50.3849 10.5945 52.4938 8.49556 55.1025 8.44558C52.4838 8.38561 50.3749 6.28666 50.3049 3.66797Z" fill="#F6967F"/>
<path d="M70.095 39.8201L70.045 39.2504C69.3953 39.3603 68.7656 39.4103 68.1759 39.4103C66.2669 39.4103 64.9675 38.8106 64.2679 37.6012C63.5682 36.4018 63.3284 34.4128 63.3683 31.6242V14.073H69.4653V12.8236H63.3683V2.80859L58.2009 5.80709V31.8341C58.2009 34.5527 59.0205 36.5917 60.6597 37.951C62.2889 39.3203 64.5578 39.99 67.4363 39.99C68.2559 39.99 69.1555 39.95 70.085 39.8401H70.095V39.8201Z" fill="#231F20"/>
</svg>
