<svg width="100" height="100" viewBox="0 0 100 100" fill="none" xmlns="http://www.w3.org/2000/svg">
<g clip-path="url(#clip0_156_1194)">
<g clip-path="url(#clip1_156_1194)">
<path d="M61.7188 17.5293V70.751V73.9996M61.7188 73.6809V73.9996M38.2812 17.5293V76.6105C38.2812 83.0559 43.5547 88.3293 50 88.3293C56.4453 88.3293 61.7188 83.0547 61.7188 76.6105V73.9996" stroke="#1E1E1E" stroke-width="2.94118" stroke-miterlimit="22.9256"/>
<path fill-rule="evenodd" clip-rule="evenodd" d="M51.4648 11.6699H61.7188C63.3301 11.6699 64.6484 12.9883 64.6484 14.5996C64.6484 16.2109 63.3299 17.5293 61.7188 17.5293H38.2812C36.6701 17.5293 35.3516 16.2109 35.3516 14.5996C35.3516 12.9883 36.6699 11.6699 38.2812 11.6699H48.5352" stroke="#1E1E1E" stroke-width="2.94118" stroke-miterlimit="22.9256"/>
<path d="M48.1897 81.3506C49.8077 81.3506 51.1194 80.0389 51.1194 78.4209C51.1194 76.8029 49.8077 75.4912 48.1897 75.4912C46.5717 75.4912 45.26 76.8029 45.26 78.4209C45.26 80.0389 46.5717 81.3506 48.1897 81.3506Z" stroke="#1E1E1E" stroke-width="2.94118" stroke-miterlimit="22.9256"/>
<path d="M38.2812 29.248H61.7188" stroke="#1E1E1E" stroke-width="2.94118" stroke-miterlimit="22.9256"/>
<path d="M55.8594 36.5723V33.6426M55.8594 42.4318V39.5021" stroke="#1E1E1E" stroke-width="2.94118" stroke-miterlimit="22.9256"/>
<path fill-rule="evenodd" clip-rule="evenodd" d="M94.1406 45.6051C96.5675 45.6051 98.5351 47.5727 98.5351 49.9996C98.5351 52.4266 96.5675 54.3941 94.1406 54.3941C91.7136 54.3941 89.746 52.4266 89.746 49.9996C89.746 47.5727 91.7134 45.6051 94.1406 45.6051ZM87.0916 30.584C89.5185 30.584 91.4861 28.6164 91.4861 26.1895C91.4861 23.7625 89.5185 21.7949 87.0916 21.7949C84.6646 21.7949 82.697 23.7625 82.697 26.1895C82.697 28.6164 84.6644 30.584 87.0916 30.584ZM87.0916 69.4152C89.5185 69.4152 91.4861 71.3828 91.4861 73.8098C91.4861 76.2367 89.5185 78.2043 87.0916 78.2043C84.6646 78.2043 82.697 76.2367 82.697 73.8098C82.697 71.3828 84.6644 69.4152 87.0916 69.4152Z" stroke="#1E1E1E" stroke-width="2.94118" stroke-miterlimit="22.9256"/>
<path d="M89.7461 49.9998H66.1133M83.9842 29.2969L81.2838 31.9973C77.2604 36.0209 71.8033 38.2812 66.1133 38.2812M83.9842 70.7025L81.2839 68.0022C77.2604 63.9787 71.8034 61.7184 66.1133 61.7184" stroke="#1E1E1E" stroke-width="2.94118" stroke-miterlimit="22.9256"/>
<path fill-rule="evenodd" clip-rule="evenodd" d="M5.85938 45.6051C3.43242 45.6051 1.46484 47.5727 1.46484 49.9996C1.46484 52.4266 3.43242 54.3941 5.85938 54.3941C8.28633 54.3941 10.2539 52.4266 10.2539 49.9996C10.2539 47.5727 8.28633 45.6051 5.85938 45.6051ZM12.9084 30.584C10.4814 30.584 8.51387 28.6164 8.51387 26.1895C8.51387 23.7625 10.4814 21.7949 12.9084 21.7949C15.3354 21.7949 17.3029 23.7625 17.3029 26.1895C17.3029 28.6164 15.3354 30.584 12.9084 30.584ZM12.9084 69.4152C10.4814 69.4152 8.51387 71.3828 8.51387 73.8098C8.51387 76.2367 10.4814 78.2043 12.9084 78.2043C15.3354 78.2043 17.3029 76.2367 17.3029 73.8098C17.3029 71.3828 15.3354 69.4152 12.9084 69.4152Z" stroke="#1E1E1E" stroke-width="2.94118" stroke-miterlimit="22.9256"/>
<path d="M10.2539 49.9998H33.8867M16.0158 29.2969L18.7162 31.9973C22.7396 36.0208 28.1967 38.2812 33.8867 38.2812M16.0158 70.7025L18.7161 68.0022C22.7396 63.9787 28.1966 61.7184 33.8867 61.7184" stroke="#1E1E1E" stroke-width="2.94118" stroke-miterlimit="22.9256"/>
<path d="M46.7249 69.6318H43.7952M49.6547 63.7725H46.725" stroke="#1E1E1E" stroke-width="2.94118" stroke-miterlimit="22.9256"/>
</g>
</g>
<defs>
<clipPath id="clip0_156_1194">
<rect width="100" height="100" fill="white"/>
</clipPath>
<clipPath id="clip1_156_1194">
<rect width="100" height="100" fill="white"/>
</clipPath>
</defs>
</svg>
