<svg width="24" height="24" viewBox="0 0 24 24" fill="none" xmlns="http://www.w3.org/2000/svg">
<path fill-rule="evenodd" clip-rule="evenodd" d="M7.40902 14.246L5.87402 7H18.5C19.151 7 19.628 7.611 19.47 8.243L18.122 13.635C17.917 14.454 17.221 15.056 16.381 15.14L9.56502 15.822C8.54902 15.923 7.62002 15.244 7.40902 14.246Z" stroke="#09090B" stroke-width="1.5" stroke-linecap="round" stroke-linejoin="round"/>
<path d="M5.874 7L5.224 4H3.5" stroke="#09090B" stroke-width="1.5" stroke-linecap="round" stroke-linejoin="round"/>
<path d="M17.1091 19.2668C16.9071 19.2668 16.7431 19.4308 16.7451 19.6328C16.7451 19.8348 16.9091 19.9988 17.1111 19.9988C17.3131 19.9988 17.4771 19.8348 17.4771 19.6328C17.4761 19.4308 17.3121 19.2668 17.1091 19.2668" stroke="#323232" stroke-width="1.5" stroke-linecap="round" stroke-linejoin="round"/>
<path d="M8.697 19.2673C8.495 19.2673 8.331 19.4313 8.333 19.6333C8.331 19.8363 8.496 20.0003 8.698 20.0003C8.9 20.0003 9.064 19.8363 9.064 19.6343C9.064 19.4313 8.9 19.2673 8.697 19.2673" stroke="#323232" stroke-width="1.5" stroke-linecap="round" stroke-linejoin="round"/>
</svg>
