<svg width="32" height="32" viewBox="0 0 32 32" fill="none" xmlns="http://www.w3.org/2000/svg">
<mask id="mask0_41_4429" style="mask-type:luminance" maskUnits="userSpaceOnUse" x="0" y="0" width="32" height="32">
<path d="M31.5 31.5V0.5H0.5V31.5H31.5Z" fill="white" stroke="white"/>
</mask>
<g mask="url(#mask0_41_4429)">
<path d="M18.7254 28.0967C24.2609 26.8549 28.3974 21.9106 28.3974 16.0003C28.3974 9.15386 22.847 3.60288 16.0005 3.60288C9.15338 3.60288 3.60303 9.15386 3.60303 16.0003C3.60303 21.9025 7.72795 26.8413 13.2525 28.0917" stroke="black" stroke-miterlimit="10" stroke-linecap="round" stroke-linejoin="round"/>
<path d="M18.4049 9.74219H13.4397C12.7066 9.74219 12.1123 9.14788 12.1123 8.41482C12.1123 7.68176 12.7066 7.08745 13.4397 7.08745H18.4049C19.138 7.08745 19.7322 7.68176 19.7322 8.41482C19.7322 9.14788 19.138 9.74219 18.4049 9.74219Z" stroke="black" stroke-miterlimit="10" stroke-linecap="round" stroke-linejoin="round"/>
<path d="M18.2672 9.74194V22.5677C18.2672 23.8633 17.2174 24.9131 15.9225 24.9131C14.627 24.9131 13.5771 23.8633 13.5771 22.5677V9.74194H18.2672Z" stroke="black" stroke-miterlimit="10" stroke-linecap="round" stroke-linejoin="round"/>
<path d="M18.2672 12.8857V22.5678C18.2672 23.8633 17.2174 24.9131 15.9225 24.9131C14.627 24.9131 13.5771 23.8633 13.5771 22.5678V12.8539C13.5771 12.8539 14.5019 12.0623 15.9225 12.8063C17.1373 13.4429 18.2672 12.8857 18.2672 12.8857Z" stroke="black" stroke-miterlimit="10" stroke-linecap="round" stroke-linejoin="round"/>
<path d="M24.8215 7.2904L7.17944 24.7119" stroke="black" stroke-miterlimit="10" stroke-linecap="round" stroke-linejoin="round"/>
</g>
</svg>
