<svg width="32" height="32" viewBox="0 0 32 32" fill="none" xmlns="http://www.w3.org/2000/svg">
<g clip-path="url(#clip0_41_4626)">
<mask id="mask0_41_4626" style="mask-type:luminance" maskUnits="userSpaceOnUse" x="0" y="0" width="32" height="32">
<path d="M31.5 31.5V0.5H0.5V31.5H31.5Z" fill="white" stroke="white"/>
</mask>
<g mask="url(#mask0_41_4626)">
<path d="M31.0624 16C31.0624 24.3188 24.3187 31.0625 16 31.0625C7.68117 31.0625 0.9375 24.3188 0.9375 16C0.9375 7.68126 7.68117 0.937592 16 0.937592C24.3187 0.937592 31.0624 7.68126 31.0624 16Z" stroke="black" stroke-miterlimit="10" stroke-linecap="round" stroke-linejoin="round"/>
<path d="M22.2475 18.8553C22.308 18.5675 22.3461 18.2732 22.3461 17.9712C22.3461 15.1035 19.5048 12.7789 16 12.7789C12.4951 12.7789 9.65287 15.1035 9.65287 17.9712C9.65287 18.2732 9.692 18.5675 9.7525 18.8553C8.97787 19.6808 8.5 20.7883 8.5 22.0096C8.5 24.5586 10.5664 26.625 13.1154 26.625C14.2076 26.625 15.2096 26.2436 16 25.6094C16.7904 26.2436 17.7923 26.625 18.8846 26.625C21.4336 26.625 23.5 24.5586 23.5 22.0096C23.5 20.7883 23.0221 19.6808 22.2475 18.8553Z" stroke="black" stroke-miterlimit="10" stroke-linecap="round" stroke-linejoin="round"/>
<path d="M26.6507 26.6504L5.34924 5.34889" stroke="black" stroke-miterlimit="10" stroke-linecap="round" stroke-linejoin="round"/>
<path d="M16 25.6094V22.875" stroke="black" stroke-miterlimit="10" stroke-linecap="round" stroke-linejoin="round"/>
<path d="M14.75 22.875H17.25" stroke="black" stroke-miterlimit="10" stroke-linecap="round" stroke-linejoin="round"/>
<path d="M22.346 17.9703L22.347 17.9707C23.3846 12.0858 22.8455 5.72555 21.1427 5.4253C19.7087 5.17243 18.2237 8.34855 17.1703 12.8703" stroke="black" stroke-miterlimit="10" stroke-linecap="round" stroke-linejoin="round"/>
<path d="M14.8295 12.8703C13.776 8.34854 12.291 5.17243 10.8571 5.4253C9.15429 5.72555 8.61511 12.0858 9.65279 17.9707" stroke="black" stroke-miterlimit="10" stroke-linecap="round" stroke-linejoin="round"/>
</g>
</g>
<defs>
<clipPath id="clip0_41_4626">
<rect width="32" height="32" fill="white"/>
</clipPath>
</defs>
</svg>
