<svg width="32" height="32" viewBox="0 0 32 32" fill="none" xmlns="http://www.w3.org/2000/svg">
<path d="M25.4161 19.0483C25.4455 19.3492 25.4607 19.6481 25.4607 19.9443C25.4607 26.2573 20.33 31.3749 14.0009 31.3749C7.67189 31.3749 2.54126 26.2572 2.54126 19.9443C2.54126 11.8189 14.001 1.72607 14.001 1.72607C14.001 1.72607 15.6339 3.16426 17.667 5.39189" stroke="black" stroke-width="0.761905" stroke-miterlimit="10" stroke-linecap="round" stroke-linejoin="round"/>
<path d="M13.4196 27.7337C9.42912 27.7337 6.18262 24.4989 6.18262 20.5229M29.4588 12.3658C29.4588 16.4342 26.1523 19.7324 22.0735 19.7324C17.9947 19.7324 14.6882 16.4342 14.6882 12.3658C14.6882 7.12944 22.0735 0.625 22.0735 0.625C22.0735 0.625 29.4588 7.12944 29.4588 12.3658Z" stroke="black" stroke-width="0.761905" stroke-miterlimit="10" stroke-linecap="round" stroke-linejoin="round"/>
</svg>
