<svg width="24" height="24" viewBox="0 0 24 24" fill="none" xmlns="http://www.w3.org/2000/svg">
<path fill-rule="evenodd" clip-rule="evenodd" d="M20.707 4.70725L19.293 3.29325C18.902 2.90225 18.269 2.90225 17.879 3.29325L7.293 13.8792C7.105 14.0662 7 14.3213 7 14.5863V17.0002H9.414C9.679 17.0002 9.934 16.8952 10.121 16.7072L20.707 6.12125C21.098 5.73125 21.098 5.09825 20.707 4.70725V4.70725Z" stroke="#6A7282" stroke-width="1.5" stroke-linecap="round" stroke-linejoin="round"/>
<path d="M18.91 7.90984L16.09 5.08984" stroke="#6A7282" stroke-width="1.5" stroke-linecap="round" stroke-linejoin="round"/>
<path d="M21 11V19C21 20.105 20.105 21 19 21H5C3.895 21 3 20.105 3 19V5C3 3.895 3.895 3 5 3H13" stroke="#6A7282" stroke-width="1.5" stroke-linecap="round" stroke-linejoin="round"/>
</svg>
