<svg width="100" height="100" viewBox="0 0 100 100" fill="none" xmlns="http://www.w3.org/2000/svg">
<path fill-rule="evenodd" clip-rule="evenodd" d="M5.27344 48.4375H94.8215H5.27344Z" fill="#1E1E1E"/>
<path d="M5.27344 48.4375H94.8215" stroke="#1E1E1E" stroke-width="3" stroke-miterlimit="22.9256" stroke-linecap="round" stroke-linejoin="round"/>
<path d="M32.8969 83.5778L23.2031 86.9716C23.0094 87.0393 22.831 87.1445 22.6779 87.2812C22.5249 87.4179 22.4003 87.5834 22.3112 87.7682C22.1312 88.1415 22.107 88.571 22.2438 88.9622C22.3805 89.3534 22.6671 89.6743 23.0404 89.8542C23.4137 90.0341 23.8432 90.0583 24.2344 89.9216L33.7563 86.5872C33.304 85.639 33.0136 84.6219 32.8969 83.5778ZM76.9719 87.0341L67.1031 83.581C66.9781 84.6372 66.6969 85.656 66.2438 86.5872L75.9437 89.981C76.14 90.0607 76.3503 90.0996 76.5621 90.0955C76.7738 90.0914 76.9825 90.0443 77.1755 89.957C77.3685 89.8698 77.5417 89.7442 77.6846 89.5879C77.8276 89.4317 77.9372 89.248 78.007 89.048C78.0768 88.8481 78.1052 88.636 78.0904 88.4247C78.0757 88.2135 78.0182 88.0074 77.9214 87.819C77.8246 87.6307 77.6905 87.464 77.5273 87.329C77.364 87.1941 77.1751 87.0937 76.9719 87.0341ZM75.0781 35.8247L74.5062 36.0153C74.4656 37.1341 74.4188 38.2466 74.3688 39.356L76.0656 38.7903C76.9562 38.4903 78.125 39.0903 78.125 40.2716V44.806C78.123 46.3252 77.6767 47.8107 76.8411 49.0795C76.0054 50.3482 74.8169 51.3449 73.4219 51.9466C73.2813 53.1653 73.125 54.3341 72.9563 55.4528L73.7719 55.181C75.9506 54.4571 77.8459 53.065 79.1883 51.2025C80.5308 49.34 81.2522 47.1018 81.25 44.806V40.2716C81.25 37.181 78.0406 34.831 75.0781 35.8247ZM21.875 44.806V40.2716C21.8754 40.0241 21.9344 39.7802 22.0473 39.56C22.1601 39.3398 22.3236 39.1494 22.5242 39.0046C22.7249 38.8597 22.957 38.7645 23.2016 38.7267C23.4462 38.6889 23.6962 38.7097 23.9313 38.7872L25.6625 39.3653C25.6086 38.2521 25.5628 37.1386 25.525 36.0247L24.9219 35.8247C21.9437 34.8278 18.75 37.181 18.75 40.2716V44.806C18.75 49.5216 21.7562 53.6903 26.2281 55.181L27.0625 55.4591C26.8937 54.3435 26.7406 53.1778 26.6062 51.9591C25.204 51.3608 24.0083 50.364 23.1672 49.0925C22.3262 47.8209 21.8769 46.3305 21.875 44.806Z" fill="#1E1E1E"/>
<path d="M65.625 71.8756V82.4975C65.6217 84.1007 65.1267 85.6643 64.207 86.9775C63.2872 88.2907 61.9868 89.2902 60.4813 89.8412L50 93.6506L39.5187 89.8412C38.0132 89.2902 36.7128 88.2907 35.793 86.9775C34.8733 85.6643 34.3783 84.1007 34.375 82.4975V71.8756H34.9687C34.0437 70.8631 33.1781 69.8443 32.3719 68.8381C32.0504 68.9294 31.7673 69.1225 31.565 69.3885C31.3627 69.6545 31.2522 69.9789 31.25 70.3131V82.4975C31.2547 84.7414 31.9475 86.93 33.235 88.7679C34.5224 90.6058 36.3426 92.0046 38.45 92.7756L49.4656 96.7818C49.8108 96.9075 50.1892 96.9075 50.5344 96.7818L61.55 92.7756C63.6574 92.0046 65.4776 90.6058 66.765 88.7679C68.0525 86.93 68.7453 84.7414 68.75 82.4975V70.3131C68.7476 69.9764 68.6351 69.6497 68.4297 69.3828C68.2243 69.116 67.9374 68.9236 67.6125 68.835C66.7774 69.8751 65.9103 70.8891 65.0125 71.8756H65.625Z" fill="#1E1E1E"/>
<path d="M55.6531 81.2502H44.3563C44.1273 81.2503 43.9012 81.2002 43.6938 81.1033C38.4531 78.6533 31.6375 70.9283 28.6781 66.4814C25.8031 62.1595 24.25 50.5783 23.7844 30.0283C23.6921 26.5181 24.3078 23.0253 25.5948 19.7583C26.8817 16.4912 28.8136 13.5169 31.275 11.0126C33.7086 8.50633 36.6224 6.51616 39.8423 5.16098C43.0622 3.8058 46.5222 3.1134 50.0156 3.12515C57.1219 3.12515 63.775 5.92515 68.7469 11.0033C71.2088 13.5063 73.1416 16.4793 74.4301 19.7452C75.7187 23.0111 76.3365 26.5029 76.2469 30.0126C75.7906 50.5877 74.2125 62.2002 71.2688 66.5533C68.2594 71.0095 61.425 78.7127 56.3125 81.1033C56.1062 81.2001 55.881 81.2503 55.6531 81.2502ZM44.7156 78.1252H55.2906C59.3125 76.072 65.3906 69.6689 68.6813 64.8064C71.2 61.0783 72.6937 49.3501 73.1219 29.9439C73.2009 26.8508 72.6564 23.7734 71.5209 20.8952C70.3854 18.017 68.6821 15.3968 66.5125 13.1908C64.3693 10.9859 61.8042 9.23502 58.97 8.04259C56.1358 6.85017 53.0905 6.24057 50.0156 6.25015C43.75 6.25015 37.8906 8.7189 33.5125 13.197C31.3423 15.4042 29.6391 18.0261 28.5046 20.9061C27.3701 23.7861 26.8276 26.8652 26.9094 29.9595C27.3469 49.3439 28.8188 61.0502 31.2781 64.7502C34.4406 69.5033 40.6469 76.0439 44.7156 78.1252ZM7.8125 81.2502C8.2269 81.2502 8.62433 81.4148 8.91735 81.7078C9.21038 82.0008 9.375 82.3983 9.375 82.8127V90.6252H17.1875C17.6019 90.6252 17.9993 90.7898 18.2924 91.0828C18.5854 91.3758 18.75 91.7733 18.75 92.1877C18.75 92.6021 18.5854 92.9995 18.2924 93.2925C17.9993 93.5855 17.6019 93.7502 17.1875 93.7502H7.8125C7.3981 93.7502 7.00067 93.5855 6.70765 93.2925C6.41462 92.9995 6.25 92.6021 6.25 92.1877V82.8127C6.25 82.3983 6.41462 82.0008 6.70765 81.7078C7.00067 81.4148 7.3981 81.2502 7.8125 81.2502ZM92.1875 81.2502C92.6019 81.2502 92.9993 81.4148 93.2924 81.7078C93.5854 82.0008 93.75 82.3983 93.75 82.8127V92.1877C93.75 92.6021 93.5854 92.9995 93.2924 93.2925C92.9993 93.5855 92.6019 93.7502 92.1875 93.7502H82.8125C82.3981 93.7502 82.0007 93.5855 81.7076 93.2925C81.4146 92.9995 81.25 92.6021 81.25 92.1877C81.25 91.7733 81.4146 91.3758 81.7076 91.0828C82.0007 90.7898 82.3981 90.6252 82.8125 90.6252H90.625V82.8127C90.625 82.3983 90.7896 82.0008 91.0826 81.7078C91.3757 81.4148 91.7731 81.2502 92.1875 81.2502ZM92.1875 18.7501C91.7731 18.7501 91.3757 18.5855 91.0826 18.2925C90.7896 17.9995 90.625 17.602 90.625 17.1876V9.37515H82.8125C82.3981 9.37515 82.0007 9.21053 81.7076 8.9175C81.4146 8.62448 81.25 8.22705 81.25 7.81265C81.25 7.39825 81.4146 7.00082 81.7076 6.70779C82.0007 6.41477 82.3981 6.25015 82.8125 6.25015H92.1875C92.6019 6.25015 92.9993 6.41477 93.2924 6.70779C93.5854 7.00082 93.75 7.39825 93.75 7.81265V17.1876C93.75 17.602 93.5854 17.9995 93.2924 18.2925C92.9993 18.5855 92.6019 18.7501 92.1875 18.7501ZM7.8125 18.7501C7.3981 18.7501 7.00067 18.5855 6.70765 18.2925C6.41462 17.9995 6.25 17.602 6.25 17.1876V7.81265C6.25 7.39825 6.41462 7.00082 6.70765 6.70779C7.00067 6.41477 7.3981 6.25015 7.8125 6.25015H17.1875C17.6019 6.25015 17.9993 6.41477 18.2924 6.70779C18.5854 7.00082 18.75 7.39825 18.75 7.81265C18.75 8.22705 18.5854 8.62448 18.2924 8.9175C17.9993 9.21053 17.6019 9.37515 17.1875 9.37515H9.375V17.1876C9.375 17.602 9.21038 17.9995 8.91735 18.2925C8.62433 18.5855 8.2269 18.7501 7.8125 18.7501Z" fill="#1E1E1E"/>
</svg>
