<svg width="32" height="32" viewBox="0 0 32 32" fill="none" xmlns="http://www.w3.org/2000/svg">
<g clip-path="url(#clip0_667_5124)">
<mask id="mask0_667_5124" style="mask-type:luminance" maskUnits="userSpaceOnUse" x="0" y="0" width="32" height="32">
<path d="M31.25 31.25V0.75H0.75V31.25H31.25Z" fill="white" stroke="white" stroke-width="1.5"/>
</mask>
<g mask="url(#mask0_667_5124)">
<path d="M20.6875 31.0625V19.6875H24.125L25.0625 15H20.6875V10.3126H25.0625V5.62508H20.6875C18.0986 5.62508 16 7.72376 16 10.3126V15H12.5625V19.6875H16V31.0625" stroke="black" stroke-width="1.5" stroke-miterlimit="10"/>
<path d="M31.0624 27.3125C31.0624 29.375 29.3749 31.0625 27.3124 31.0625H4.68749C2.62499 31.0625 0.9375 29.375 0.9375 27.3125V4.68758C0.9375 2.62509 2.62499 0.937592 4.68749 0.937592H27.3124C29.3749 0.937592 31.0624 2.62509 31.0624 4.68758V27.3125Z" stroke="black" stroke-width="1.5" stroke-miterlimit="10"/>
</g>
</g>
<defs>
<clipPath id="clip0_667_5124">
<rect width="32" height="32" fill="white"/>
</clipPath>
</defs>
</svg>
