<svg width="16" height="16" viewBox="0 0 16 16" fill="none" xmlns="http://www.w3.org/2000/svg">
<path d="M16 8.0294C16 3.59489 12.4183 8.14943e-07 8 8.14943e-07C3.58173 8.14943e-07 0 3.59489 0 8.0294C0 11.795 2.58288 14.9547 6.06739 15.8224V10.4831H4.41773V8.0294H6.06739V6.97212C6.06739 4.23917 7.29965 2.97245 9.97293 2.97245C10.4797 2.97245 11.3543 3.07218 11.712 3.17194V5.39621C11.5232 5.37626 11.1953 5.36628 10.7878 5.36628C9.47603 5.36628 8.96918 5.865 8.96918 7.16165V8.0294H11.5823L11.1334 10.4831H8.96918V16C12.9303 15.5198 16 12.1346 16 8.0294Z" fill="#0E0E0E"/>
</svg>
