<svg width="24" height="24" viewBox="0 0 24 24" fill="none" xmlns="http://www.w3.org/2000/svg">
<path fill-rule="evenodd" clip-rule="evenodd" d="M20 8H4C3.448 8 3 8.448 3 9V11C3 11.552 3.448 12 4 12H20C20.552 12 21 11.552 21 11V9C21 8.448 20.552 8 20 8Z" stroke="#323232" stroke-width="1.5" stroke-linecap="round" stroke-linejoin="round"/>
<path d="M12 21V8" stroke="#323232" stroke-width="1.5" stroke-linecap="round" stroke-linejoin="round"/>
<path d="M15.696 6.6123C14.618 7.7343 12.921 8.0003 12.099 8.0003" stroke="black" stroke-width="1.5" stroke-linecap="round" stroke-linejoin="round"/>
<path d="M12.099 8.00012C12.099 8.00012 11.605 4.88412 12.82 3.62012" stroke="black" stroke-width="1.5" stroke-linecap="round" stroke-linejoin="round"/>
<path d="M15.696 6.61248C16.49 5.78648 16.49 4.44648 15.696 3.62048C14.902 2.79448 13.615 2.79448 12.821 3.62048" stroke="black" stroke-width="1.5" stroke-linecap="round" stroke-linejoin="round"/>
<path d="M8.30399 6.6123C9.38199 7.7343 11.079 8.0003 11.901 8.0003" stroke="#323232" stroke-width="1.5" stroke-linecap="round" stroke-linejoin="round"/>
<path d="M11.901 8.00012C11.901 8.00012 12.395 4.88412 11.18 3.62012" stroke="#323232" stroke-width="1.5" stroke-linecap="round" stroke-linejoin="round"/>
<path d="M8.304 6.61248C7.51 5.78648 7.51 4.44648 8.304 3.62048C9.098 2.79448 10.385 2.79448 11.179 3.62048" stroke="#323232" stroke-width="1.5" stroke-linecap="round" stroke-linejoin="round"/>
<path d="M19 12V20C19 20.552 18.552 21 18 21H6C5.448 21 5 20.552 5 20V12" stroke="#323232" stroke-width="1.5" stroke-linecap="round" stroke-linejoin="round"/>
</svg>
