<svg width="16" height="16" viewBox="0 0 16 16" fill="none" xmlns="http://www.w3.org/2000/svg">
<path d="M8.82241 0C9.72236 0.00239994 10.1791 0.00719983 10.5735 0.0183996L10.7287 0.0239994C10.9079 0.0303992 11.0847 0.038399 11.2983 0.0479988C12.1494 0.0879978 12.7302 0.222395 13.2398 0.41999C13.7678 0.623185 14.2125 0.898378 14.6573 1.34237C15.0643 1.74214 15.379 2.22592 15.5797 2.75993C15.7773 3.26952 15.9117 3.85031 15.9517 4.70229C15.9613 4.91508 15.9692 5.09188 15.9756 5.27187L15.9804 5.42707C15.9924 5.82066 15.9972 6.27745 15.9988 7.17743L15.9996 7.77421V8.82219C16.0016 9.4057 15.9955 9.9892 15.9812 10.5725L15.9764 10.7277C15.97 10.9077 15.962 11.0845 15.9525 11.2973C15.9125 12.1493 15.7765 12.7293 15.5797 13.2397C15.379 13.7737 15.0643 14.2575 14.6573 14.6572C14.2576 15.0642 13.7738 15.379 13.2398 15.5796C12.7302 15.7772 12.1494 15.9116 11.2983 15.9516L10.7287 15.9756L10.5735 15.9804C10.1791 15.9916 9.72236 15.9972 8.82241 15.9988L8.22564 15.9996H7.17849C6.59473 16.0017 6.01097 15.9955 5.42738 15.9812L5.27219 15.9764C5.08229 15.9692 4.89243 15.961 4.70262 15.9516C3.85146 15.9116 3.27069 15.7772 2.76032 15.5796C2.22661 15.3789 1.74312 15.0641 1.34359 14.6572C0.936364 14.2575 0.621311 13.7738 0.420434 13.2397C0.222844 12.7301 0.0884505 12.1493 0.0484525 11.2973L0.0244538 10.7277L0.0204541 10.5725C0.00570766 9.98921 -0.000959387 9.4057 0.000455015 8.82219V7.17743C-0.00175919 6.59392 0.0041078 6.01041 0.0180542 5.42707L0.0236539 5.27187C0.0300536 5.09188 0.0380531 4.91508 0.0476526 4.70229C0.0876506 3.85031 0.222044 3.27032 0.419634 2.75993C0.620979 2.2257 0.936586 1.74191 1.34439 1.34237C1.74369 0.935617 2.22689 0.620844 2.76032 0.41999C3.27069 0.222395 3.85066 0.0879978 4.70262 0.0479988C4.91541 0.038399 5.093 0.0303992 5.27219 0.0239994L5.42738 0.0191995C6.01071 0.00498604 6.5942 -0.00114773 7.17769 0.000799923L8.82241 0ZM8.00005 3.9999C6.93924 3.9999 5.92187 4.42132 5.17177 5.17145C4.42166 5.92158 4.00025 6.93897 4.00025 7.99981C4.00025 9.06065 4.42166 10.078 5.17177 10.8282C5.92187 11.5783 6.93924 11.9997 8.00005 11.9997C9.06086 11.9997 10.0782 11.5783 10.8283 10.8282C11.5784 10.078 11.9998 9.06065 11.9998 7.99981C11.9998 6.93897 11.5784 5.92158 10.8283 5.17145C10.0782 4.42132 9.06086 3.9999 8.00005 3.9999ZM8.00005 5.59986C8.31521 5.59981 8.62729 5.66184 8.91848 5.7824C9.20966 5.90296 9.47425 6.07969 9.69714 6.30251C9.92003 6.52533 10.0968 6.78986 10.2175 7.08102C10.3382 7.37217 10.4003 7.68424 10.4003 7.99941C10.4004 8.31457 10.3384 8.62666 10.2178 8.91786C10.0972 9.20905 9.92052 9.47365 9.69771 9.69654C9.47489 9.91943 9.21036 10.0963 8.91921 10.2169C8.62807 10.3376 8.31601 10.3997 8.00085 10.3997C7.36436 10.3997 6.75395 10.1469 6.30388 9.69682C5.85382 9.24675 5.60097 8.63631 5.60097 7.99981C5.60097 7.3633 5.85382 6.75287 6.30388 6.30279C6.75395 5.85271 7.36436 5.59986 8.00085 5.59986M12.2006 2.79993C11.9354 2.79993 11.6811 2.90529 11.4936 3.09282C11.306 3.28035 11.2007 3.5347 11.2007 3.79991C11.2007 4.06512 11.306 4.31947 11.4936 4.507C11.6811 4.69453 11.9354 4.79988 12.2006 4.79988C12.4658 4.79988 12.7202 4.69453 12.9077 4.507C13.0952 4.31947 13.2006 4.06512 13.2006 3.79991C13.2006 3.5347 13.0952 3.28035 12.9077 3.09282C12.7202 2.90529 12.4658 2.79993 12.2006 2.79993Z" fill="#0E0E0E"/>
</svg>
