<svg width="14" height="14" viewBox="0 0 14 14" fill="none" xmlns="http://www.w3.org/2000/svg">
<path d="M7.35238 0C8.10238 0.002 8.48305 0.006 8.81171 0.0153333L8.94105 0.02C9.09038 0.0253333 9.23771 0.032 9.41571 0.04C10.125 0.0733333 10.609 0.185333 11.0337 0.35C11.4737 0.519333 11.8444 0.748667 12.215 1.11867C12.5542 1.45182 12.8165 1.85498 12.9837 2.3C13.1484 2.72467 13.2604 3.20867 13.2937 3.91867C13.3017 4.096 13.3084 4.24333 13.3137 4.39333L13.3177 4.52267C13.3277 4.85067 13.3317 5.23133 13.333 5.98133L13.3337 6.47867V7.352C13.3353 7.83827 13.3302 8.32454 13.3184 8.81067L13.3144 8.94C13.309 9.09 13.3024 9.23733 13.2944 9.41467C13.261 10.1247 13.1477 10.608 12.9837 11.0333C12.8165 11.4784 12.5542 11.8815 12.215 12.2147C11.8819 12.5538 11.4787 12.8161 11.0337 12.9833C10.609 13.148 10.125 13.26 9.41571 13.2933L8.94105 13.3133L8.81171 13.3173C8.48305 13.3267 8.10238 13.3313 7.35238 13.3327L6.85505 13.3333H5.98238C5.49589 13.335 5.0094 13.3299 4.52305 13.318L4.39371 13.314C4.23545 13.308 4.07723 13.3011 3.91905 13.2933C3.20971 13.26 2.72571 13.148 2.30038 12.9833C1.8556 12.816 1.45267 12.5537 1.11971 12.2147C0.780343 11.8816 0.517785 11.4784 0.350379 11.0333C0.185713 10.6087 0.0737125 10.1247 0.0403792 9.41467L0.0203792 8.94L0.0170459 8.81067C0.00475662 8.32454 -0.00079953 7.83828 0.000379198 7.352V5.98133C-0.00146607 5.49507 0.00342334 5.0088 0.0150459 4.52267L0.0197126 4.39333C0.0250459 4.24333 0.0317125 4.096 0.0397125 3.91867C0.0730459 3.20867 0.185046 2.72533 0.349712 2.3C0.517509 1.8548 0.780528 1.45162 1.12038 1.11867C1.45315 0.779699 1.85584 0.517382 2.30038 0.35C2.72571 0.185333 3.20905 0.0733333 3.91905 0.04C4.09638 0.032 4.24438 0.0253333 4.39371 0.02L4.52305 0.016C5.00917 0.00415514 5.49544 -0.000956465 5.98171 0.000666618L7.35238 0ZM6.66705 3.33333C5.78299 3.33333 4.93514 3.68452 4.31002 4.30964C3.6849 4.93477 3.33371 5.78261 3.33371 6.66667C3.33371 7.55072 3.6849 8.39857 4.31002 9.02369C4.93514 9.64881 5.78299 10 6.66705 10C7.5511 10 8.39895 9.64881 9.02407 9.02369C9.64919 8.39857 10.0004 7.55072 10.0004 6.66667C10.0004 5.78261 9.64919 4.93477 9.02407 4.30964C8.39895 3.68452 7.5511 3.33333 6.66705 3.33333ZM6.66705 4.66667C6.92969 4.66662 7.18977 4.71831 7.43244 4.81878C7.67511 4.91925 7.89561 5.06653 8.08136 5.25222C8.26711 5.4379 8.41446 5.65836 8.51501 5.90099C8.61556 6.14363 8.66734 6.40369 8.66738 6.66633C8.66742 6.92898 8.61574 7.18906 8.51527 7.43173C8.4148 7.67439 8.26752 7.8949 8.08183 8.08064C7.89614 8.26639 7.67569 8.41375 7.43305 8.5143C7.19042 8.61485 6.93036 8.66662 6.66771 8.66667C6.13728 8.66667 5.62857 8.45595 5.2535 8.08088C4.87843 7.70581 4.66771 7.1971 4.66771 6.66667C4.66771 6.13623 4.87843 5.62753 5.2535 5.25245C5.62857 4.87738 6.13728 4.66667 6.66771 4.66667M10.1677 2.33333C9.9467 2.33333 9.73474 2.42113 9.57846 2.57741C9.42218 2.73369 9.33438 2.94565 9.33438 3.16667C9.33438 3.38768 9.42218 3.59964 9.57846 3.75592C9.73474 3.9122 9.9467 4 10.1677 4C10.3887 4 10.6007 3.9122 10.757 3.75592C10.9132 3.59964 11.001 3.38768 11.001 3.16667C11.001 2.94565 10.9132 2.73369 10.757 2.57741C10.6007 2.42113 10.3887 2.33333 10.1677 2.33333Z" fill="#0E0E0E"/>
</svg>
