<svg width="100" height="100" viewBox="0 0 100 100" fill="none" xmlns="http://www.w3.org/2000/svg">
<g clip-path="url(#clip0_156_1084)">
<mask id="mask0_156_1084" style="mask-type:luminance" maskUnits="userSpaceOnUse" x="0" y="0" width="100" height="100">
<path d="M0 0.000297546H99.9997V100H0V0.000297546Z" fill="white"/>
</mask>
<g mask="url(#mask0_156_1084)">
<path d="M95.3653 49.5779C95.3653 66.63 85.97 81.4786 72.0738 89.2463V92.6235C72.0738 95.8732 69.4107 98.5361 66.1611 98.5361H33.7565C30.5065 98.5361 27.8434 95.8732 27.8434 92.6235V89.2463C13.9472 81.4786 4.55188 66.63 4.55188 49.5779H95.3653Z" stroke="#1E1E1E" stroke-width="3" stroke-miterlimit="10" stroke-linecap="round" stroke-linejoin="round"/>
<path d="M14.3845 77.5918H46.6395H53.2775H85.5327M5.60364 58.3915H94.3135" stroke="#1E1E1E" stroke-width="3" stroke-miterlimit="10" stroke-linecap="round" stroke-linejoin="round"/>
<path d="M28.5852 25.9432C31.2482 28.1579 33.7562 30.9481 35.6994 34.3198C38.6115 39.358 39.7742 44.85 39.8629 49.5781H14.8049C14.2673 48.826 13.7666 48.0481 13.3047 47.2473C6.71629 35.8368 9.09148 22.1286 12.5737 20.119C14.329 19.1058 18.52 19.8255 23.0875 22.245" stroke="#1E1E1E" stroke-width="3" stroke-miterlimit="10" stroke-linecap="round" stroke-linejoin="round"/>
<path d="M33.5736 31.1309C40.5218 22.0233 51.4394 18.3085 54.5732 20.1188C55.614 20.7169 56.5495 22.3612 57.1862 24.6698C57.1862 24.6698 57.6521 26.6433 57.8124 27.9297C57.9726 29.2153 58.0056 31.2415 58.0056 31.2415C58.0278 36.1358 56.904 41.9379 53.8423 47.2473C53.3804 48.0482 52.8796 48.826 52.3419 49.5781" stroke="#1E1E1E" stroke-width="3" stroke-miterlimit="10" stroke-linecap="round" stroke-linejoin="round"/>
<path d="M34.7971 64.4537C36.7514 64.4537 38.3348 66.0371 38.3348 67.9914C38.3348 69.9459 36.7514 71.5293 34.7971 71.5293C32.8428 71.5293 31.2595 69.9459 31.2595 67.9914C31.2595 66.0371 32.8428 64.4537 34.7971 64.4537ZM80.2786 64.4537C82.2329 64.4537 83.8163 66.0371 83.8163 67.9914C83.8163 69.9459 82.2329 71.5293 80.2786 71.5293C78.33 71.5293 76.741 69.9459 76.741 67.9914C76.741 66.0371 78.33 64.4537 80.2786 64.4537ZM19.6386 64.4537C21.5929 64.4537 23.1763 66.0371 23.1763 67.9914C23.1763 69.9459 21.5929 71.5293 19.6386 71.5293C17.6841 71.5293 16.1007 69.9459 16.1007 67.9914C16.1007 66.0371 17.6841 64.4537 19.6386 64.4537ZM65.1201 64.4537C67.0744 64.4537 68.6578 66.0371 68.6578 67.9914C68.6578 69.9459 67.0744 71.5293 65.1201 71.5293C63.1656 71.5293 61.5824 69.9459 61.5824 67.9914C61.5824 66.0371 63.1656 64.4537 65.1201 64.4537ZM49.9614 64.4537C51.9102 64.4537 53.499 66.0371 53.499 67.9914C53.499 69.9459 51.9102 71.5293 49.9614 71.5293C48.0071 71.5293 46.4235 69.9459 46.4235 67.9914C46.4235 66.0371 48.0071 64.4537 49.9614 64.4537Z" stroke="#1E1E1E" stroke-width="3" stroke-miterlimit="10" stroke-linecap="round" stroke-linejoin="round"/>
<path d="M84.9958 31.0145C85.7321 26.9176 86.2802 23.1196 86.629 19.7368L88.0575 20.1188C90.5489 20.7889 93.1397 19.294 93.8097 16.7972L95.2878 11.2661C95.9577 8.76926 94.4632 6.18372 91.9718 5.51399L77.4552 1.62182C74.9581 0.95737 72.3728 2.45229 71.7027 4.94369L70.2191 10.48C69.5546 12.9714 71.0496 15.5624 73.541 16.2269L74.9693 16.6144C71.5644 24.2104 67.9601 34.5633 64.8543 46.1567C64.547 47.295 64.2481 48.4355 63.9574 49.5781H80.8325C81.8918 45.5849 82.8517 41.5661 83.7114 37.5252" stroke="#1E1E1E" stroke-width="3" stroke-miterlimit="10" stroke-linecap="round" stroke-linejoin="round"/>
<path d="M17.1858 28.1965L29.3824 49.5781" stroke="#1E1E1E" stroke-width="3" stroke-miterlimit="10" stroke-linecap="round" stroke-linejoin="round"/>
<path d="M21.0835 35.0342L23.5194 29.9518" stroke="#1E1E1E" stroke-width="3" stroke-miterlimit="10" stroke-linecap="round" stroke-linejoin="round"/>
<path d="M24.8482 41.6279H17.817" stroke="#1E1E1E" stroke-width="3" stroke-miterlimit="10" stroke-linecap="round" stroke-linejoin="round"/>
</g>
</g>
<defs>
<clipPath id="clip0_156_1084">
<rect width="100" height="100" fill="white"/>
</clipPath>
</defs>
</svg>
