<svg width="32" height="32" viewBox="0 0 32 32" fill="none" xmlns="http://www.w3.org/2000/svg">
<g clip-path="url(#clip0_667_5115)">
<mask id="mask0_667_5115" style="mask-type:luminance" maskUnits="userSpaceOnUse" x="0" y="0" width="32" height="32">
<path d="M31.25 31.25V0.75H0.75V31.25H31.25Z" fill="white" stroke="white" stroke-width="1.5"/>
</mask>
<g mask="url(#mask0_667_5115)">
<path d="M30.7496 16.0001C30.7465 17.3154 30.7316 18.6309 30.7136 19.9462C30.6919 21.5331 30.6674 23.1207 30.2694 24.6805C29.8521 26.3161 29.029 27.7267 27.7483 28.771C26.3988 29.8715 24.7677 30.4499 23.0072 30.557C20.6722 30.699 18.3362 30.7551 16.0003 30.7496C13.6643 30.7551 11.3283 30.699 8.99339 30.557C7.2329 30.4499 5.60178 29.8715 4.25228 28.771C2.97166 27.7267 2.14854 26.3161 1.73116 24.6805C1.33316 23.1207 1.30867 21.5331 1.28698 19.9462C1.26898 18.6309 1.25404 17.3154 1.25098 16.0001C1.25404 14.6847 1.26898 13.3692 1.28698 12.0539C1.30867 10.467 1.33316 8.87939 1.73116 7.31964C2.14854 5.68402 2.97166 4.2734 4.25228 3.22909C5.60178 2.12859 7.2329 1.55016 8.99339 1.44309C11.3283 1.30109 13.6643 1.24497 16.0003 1.25047C18.3362 1.24497 20.6722 1.30109 23.0072 1.44309C24.7677 1.55016 26.3988 2.12859 27.7483 3.22909C29.029 4.2734 29.8521 5.68402 30.2694 7.31964C30.6674 8.87939 30.6919 10.467 30.7136 12.0539C30.7316 13.3692 30.7465 14.6847 30.7496 16.0001Z" stroke="black" stroke-width="1.5" stroke-miterlimit="10"/>
<path d="M22.5 16C22.5 19.6244 19.5618 22.5625 15.9375 22.5625C12.3131 22.5625 9.375 19.6244 9.375 16C9.375 12.3757 12.3131 9.43754 15.9375 9.43754C19.5618 9.43754 22.5 12.3757 22.5 16Z" stroke="black" stroke-width="1.5" stroke-miterlimit="10"/>
<path d="M24.625 8.6875C25.2463 8.6875 25.75 8.18378 25.75 7.5625C25.75 6.94122 25.2463 6.4375 24.625 6.4375C24.0037 6.4375 23.5 6.94122 23.5 7.5625C23.5 8.18378 24.0037 8.6875 24.625 8.6875Z" fill="black" stroke="black" stroke-width="1.5"/>
</g>
</g>
<defs>
<clipPath id="clip0_667_5115">
<rect width="32" height="32" fill="white"/>
</clipPath>
</defs>
</svg>
