<svg width="16" height="16" viewBox="0 0 16 16" fill="none" xmlns="http://www.w3.org/2000/svg">
<path d="M3.90091 15.4597C3.90091 15.7581 3.65742 16 3.35703 16H1.04185C0.741458 16 0.497965 15.7581 0.497965 15.4597V5.81883C0.497965 5.52043 0.741458 5.27855 1.04185 5.27855H3.35703C3.65742 5.27855 3.90091 5.52043 3.90091 5.81883V15.4597ZM2.19944 4.36975C0.984734 4.36975 0 3.39154 0 2.18488C0 0.978214 0.984734 0 2.19944 0C3.41415 0 4.39888 0.978214 4.39888 2.18488C4.39888 3.39154 3.4142 4.36975 2.19944 4.36975ZM16 15.5032C16 15.7776 15.7761 16 15.4999 16H13.0156C12.7394 16 12.5155 15.7776 12.5155 15.5032V10.9811C12.5155 10.3065 12.7147 8.02498 10.7408 8.02498C9.20967 8.02498 8.89912 9.58662 8.83675 10.2874V15.5032C8.83675 15.7776 8.61289 16 8.33668 16H5.93388C5.65772 16 5.4338 15.7776 5.4338 15.5032V5.77531C5.4338 5.50098 5.65772 5.27855 5.93388 5.27855H8.33668C8.61284 5.27855 8.83675 5.50098 8.83675 5.77531V6.61641C9.40449 5.77005 10.2482 5.11678 12.0447 5.11678C16.0228 5.11678 16 8.8087 16 10.8372V15.5032Z" fill="#0E0E0E"/>
</svg>
