<svg width="32" height="32" viewBox="0 0 32 32" fill="none" xmlns="http://www.w3.org/2000/svg">
<path d="M30 16C30 8.2805 23.7195 2 16 2C8.316 2 2 8.2435 2 16C2 23.7195 8.2805 30 16 30C23.684 30 30 23.7565 30 16ZM29 16C29 19.4045 27.6825 22.506 25.533 24.826L24.3685 23.6615C24.5053 23.1971 24.5357 22.7079 24.4575 22.2302C24.3792 21.7524 24.1943 21.2985 23.9165 20.902L18 12.836V9.2065L19.2055 7.998C19.9415 7.265 19.421 6 18.379 6H13.6215C12.5815 6 12.057 7.262 12.793 7.9975L14 9.207V12.8365L13.807 13.1L7.174 6.467C9.494 4.3175 12.5955 3 16 3C23.1685 3 29 8.832 29 16ZM14.903 13.2955C14.9375 13.249 15 13.082 15 13V9C15 8.8675 14.9475 8.7405 14.854 8.6465L13.5 7.2905C13.4765 7.26648 13.4607 7.23608 13.4544 7.20309C13.448 7.17011 13.4516 7.136 13.4646 7.10502C13.4775 7.07404 13.4993 7.04755 13.5272 7.02888C13.5551 7.0102 13.5879 7.00016 13.6215 7H18.379C18.5305 7 18.6055 7.1845 18.4985 7.2915L17.146 8.647C17.0997 8.69337 17.0629 8.74841 17.0379 8.80898C17.0128 8.86954 17 8.93446 17 9V13C17 13.1065 17.0335 13.21 17.0965 13.2955L20.548 18H18.707L14.522 13.815L14.903 13.2955ZM23.499 22.792L19.707 19H21.2815L23.1025 21.4825C23.3595 21.8525 23.507 22.305 23.499 22.792ZM17.293 18H11.452L13.9235 14.6305L17.293 18ZM10.7185 19H18.293L23.1865 23.8935C22.9905 24.2302 22.7095 24.5096 22.3717 24.7038C22.0339 24.8979 21.6511 25.0001 21.2615 25H10.7385C8.9275 25 7.878 22.957 8.8895 21.4935L10.7185 19ZM3 16C3 12.5955 4.3175 9.494 6.467 7.174L13.2085 13.9155L8.075 20.9135C6.591 23.0585 8.1275 26 10.7385 26H21.262C21.7824 26.0007 22.2951 25.8754 22.7566 25.635C23.2181 25.3945 23.6145 25.0459 23.912 24.619L24.8265 25.5335C22.506 27.6825 19.4045 29 16 29C8.832 29 3 23.168 3 16Z" fill="black"/>
<path d="M13 24C14.103 24 15 23.103 15 22C15 20.897 14.103 20 13 20C11.897 20 11 20.897 11 22C11 23.103 11.897 24 13 24ZM13 21C13.5515 21 14 21.4485 14 22C14 22.5515 13.5515 23 13 23C12.4485 23 12 22.5515 12 22C12 21.4485 12.4485 21 13 21Z" fill="black"/>
<path d="M19.5 24C20.0523 24 20.5 23.5523 20.5 23C20.5 22.4477 20.0523 22 19.5 22C18.9477 22 18.5 22.4477 18.5 23C18.5 23.5523 18.9477 24 19.5 24Z" fill="black"/>
<path d="M17 21.75C17.4142 21.75 17.75 21.4142 17.75 21C17.75 20.5858 17.4142 20.25 17 20.25C16.5858 20.25 16.25 20.5858 16.25 21C16.25 21.4142 16.5858 21.75 17 21.75Z" fill="black"/>
</svg>
