<svg width="32" height="32" viewBox="0 0 32 32" fill="none" xmlns="http://www.w3.org/2000/svg">
<g clip-path="url(#clip0_766_4771)">
<g clip-path="url(#clip1_766_4771)">
<mask id="mask0_766_4771" style="mask-type:luminance" maskUnits="userSpaceOnUse" x="0" y="0" width="32" height="32">
<path d="M31.5 0.5V31.5H0.5V0.5H31.5Z" fill="white" stroke="black"/>
<path d="M6 6.625C6.2416 6.625 6.4375 6.42911 6.4375 6.1875C6.4375 5.9459 6.2416 5.75 6 5.75C5.75839 5.75 5.5625 5.9459 5.5625 6.1875C5.5625 6.42911 5.75839 6.625 6 6.625Z" fill="white" stroke="black"/>
<path d="M1.875 10.6875C2.1166 10.6875 2.3125 10.4916 2.3125 10.25C2.3125 10.0084 2.1166 9.8125 1.875 9.8125C1.63339 9.8125 1.4375 10.0084 1.4375 10.25C1.4375 10.4916 1.63339 10.6875 1.875 10.6875Z" fill="white" stroke="black"/>
<path d="M30.125 9.0625C30.3666 9.0625 30.5625 8.86661 30.5625 8.625C30.5625 8.3834 30.3666 8.1875 30.125 8.1875C29.8834 8.1875 29.6875 8.3834 29.6875 8.625C29.6875 8.86661 29.8834 9.0625 30.125 9.0625Z" fill="white" stroke="black"/>
</mask>
<g mask="url(#mask0_766_4771)">
<mask id="mask1_766_4771" style="mask-type:luminance" maskUnits="userSpaceOnUse" x="0" y="0" width="32" height="32">
<path d="M31.5 31.5V0.5H0.5V31.5H31.5Z" fill="white" stroke="white"/>
</mask>
<g mask="url(#mask1_766_4771)">
<path d="M7.33496 16.7178V21.4036C7.33496 25.3095 9.92252 28.6104 13.4772 29.6894C14.2753 29.9323 15.1221 30.0625 16.0001 30.0625C16.8779 30.0625 17.7248 29.9323 18.5229 29.6894C19.3619 29.4347 20.1571 29.0533 20.8809 28.5583C23.1657 27.0003 24.6651 24.3776 24.6651 21.4036V16.7178" stroke="black" stroke-miterlimit="10" stroke-linecap="round" stroke-linejoin="round"/>
<path d="M15.9995 9.71535C15.9995 12.7375 18.8213 14.589 21.0826 15.5873C22.5189 16.2215 24.0742 16.541 25.6444 16.541V15.2005C25.6444 9.87572 21.3236 5.55967 15.9946 5.5623C10.6547 5.56492 6.35449 9.95654 6.35449 15.2926V16.541C7.92467 16.541 9.47992 16.2215 10.9162 15.5873C13.1774 14.589 15.9995 12.7375 15.9995 9.7156" stroke="black" stroke-miterlimit="10" stroke-linecap="round" stroke-linejoin="round"/>
<path d="M11.0239 19.4093C11.8089 19.9413 12.8471 19.9419 13.632 19.41" stroke="black" stroke-miterlimit="10" stroke-linecap="round" stroke-linejoin="round"/>
<path d="M18.3672 19.4093C19.1522 19.9413 20.1904 19.9419 20.9753 19.41" stroke="black" stroke-miterlimit="10" stroke-linecap="round" stroke-linejoin="round"/>
<path d="M14.062 25.6946C15.2282 26.6596 16.7708 26.6608 17.937 25.6959" stroke="black" stroke-miterlimit="10" stroke-linecap="round" stroke-linejoin="round"/>
<path d="M26.4015 20.6162H24.665V16.5409H26.4015C27.5268 16.5409 28.4392 17.4532 28.4392 18.5785C28.4392 19.7039 27.5268 20.6162 26.4015 20.6162Z" stroke="black" stroke-miterlimit="10" stroke-linecap="round" stroke-linejoin="round"/>
<path d="M5.59823 20.6162H7.33466V16.5409H5.59823C4.47286 16.5409 3.56055 17.4532 3.56055 18.5785C3.56055 19.7039 4.47286 20.6162 5.59823 20.6162Z" stroke="black" stroke-miterlimit="10" stroke-linecap="round" stroke-linejoin="round"/>
<path d="M11.1875 6.75C11.1875 4.09182 13.3419 1.93751 16 1.93751C18.6581 1.93751 20.8125 4.09182 20.8125 6.75" stroke="black" stroke-miterlimit="10" stroke-linecap="round" stroke-linejoin="round"/>
</g>
</g>
</g>
</g>
<defs>
<clipPath id="clip0_766_4771">
<rect width="32" height="32" fill="white"/>
</clipPath>
<clipPath id="clip1_766_4771">
<rect width="32" height="32" fill="white"/>
</clipPath>
</defs>
</svg>
