<svg width="32" height="32" viewBox="0 0 32 32" fill="none" xmlns="http://www.w3.org/2000/svg">
<g clip-path="url(#clip0_768_4983)">
<path fill-rule="evenodd" clip-rule="evenodd" d="M3.99512 22.3922C6.94186 22.3922 9.33067 24.781 9.33067 27.7278C9.33067 24.781 11.7195 22.3922 14.6662 22.3922C11.7195 22.3922 9.33067 20.0034 9.33067 17.0566C9.33067 20.0034 6.94186 22.3922 3.99512 22.3922Z" stroke="#323232" stroke-width="1.5" stroke-linecap="round" stroke-linejoin="round"/>
<path fill-rule="evenodd" clip-rule="evenodd" d="M17.334 18.3902C20.2807 18.3902 22.6695 20.7791 22.6695 23.7258C22.6695 20.7791 25.0583 18.3902 28.0051 18.3902C25.0583 18.3902 22.6695 16.0014 22.6695 13.0547C22.6695 16.0014 20.2807 18.3902 17.334 18.3902V18.3902Z" stroke="#323232" stroke-width="1.5" stroke-linecap="round" stroke-linejoin="round"/>
<path fill-rule="evenodd" clip-rule="evenodd" d="M9.33057 9.05333C12.2773 9.05333 14.6661 11.4421 14.6661 14.3889C14.6661 11.4421 17.0549 9.05333 20.0017 9.05333C17.0549 9.05333 14.6661 6.66452 14.6661 3.71777C14.6661 6.66452 12.2773 9.05333 9.33057 9.05333Z" stroke="#323232" stroke-width="1.5" stroke-linecap="round" stroke-linejoin="round"/>
</g>
<defs>
<clipPath id="clip0_768_4983">
<rect width="32" height="32" fill="white"/>
</clipPath>
</defs>
</svg>
