<svg width="20" height="20" viewBox="0 0 20 20" fill="none" xmlns="http://www.w3.org/2000/svg">
<path fill-rule="evenodd" clip-rule="evenodd" d="M6.25 2.5H13.7533C15.8225 2.5 17.5 4.1775 17.5 6.24667V13.7542C17.5 15.8225 15.8225 17.5 13.7533 17.5H6.24667C4.1775 17.5 2.5 15.8225 2.5 13.7533V6.25C2.5 4.17917 4.17917 2.5 6.25 2.5V2.5Z" stroke="#323232" stroke-width="1.5" stroke-linecap="round" stroke-linejoin="round"/>
<path d="M6.76676 9.25V13.75" stroke="#323232" stroke-width="1.5" stroke-linecap="round" stroke-linejoin="round"/>
<path d="M9.76611 13.75V11.125C9.76611 10.0892 10.6053 9.25 11.6411 9.25V9.25C12.6769 9.25 13.5161 10.0892 13.5161 11.125V13.75" stroke="#323232" stroke-width="1.5" stroke-linecap="round" stroke-linejoin="round"/>
<path d="M6.76496 6.5319C6.66162 6.5319 6.57746 6.61607 6.57829 6.7194C6.57829 6.82273 6.66246 6.9069 6.76579 6.9069C6.86912 6.9069 6.95329 6.82273 6.95329 6.7194C6.95329 6.61523 6.86912 6.5319 6.76496 6.5319" stroke="#323232" stroke-width="1.5" stroke-linecap="round" stroke-linejoin="round"/>
</svg>
