<svg width="20" height="20" viewBox="0 0 20 20" fill="none" xmlns="http://www.w3.org/2000/svg">
<g clip-path="url(#clip0_300_1702)">
<mask id="mask0_300_1702" style="mask-type:luminance" maskUnits="userSpaceOnUse" x="0" y="0" width="20" height="20">
<path d="M19.25 19.25V0.75H0.75V19.25H19.25Z" fill="white" stroke="white" stroke-width="1.5"/>
</mask>
<g mask="url(#mask0_300_1702)">
<path d="M19.414 10C19.414 9.70706 19.1587 9.42702 18.7646 9.16886C17.8467 8.56773 17.5116 7.31699 18.0059 6.33746C18.2181 5.91688 18.2654 5.56625 18.119 5.31254C17.9724 5.05883 17.6451 4.92438 17.1747 4.8979C16.0793 4.83622 15.1638 3.92067 15.1021 2.82528C15.0756 2.35486 14.9412 2.02755 14.6875 1.88103C14.4337 1.73455 14.0831 1.78181 13.6625 1.99408C12.6829 2.48837 11.4322 2.15322 10.831 1.23537C10.5729 0.841306 10.2929 0.585995 9.99997 0.585995C9.70704 0.585995 9.427 0.841306 9.16892 1.23537C8.56771 2.15322 7.31701 2.48837 6.33748 1.99408C5.91686 1.78181 5.5662 1.73455 5.31249 1.88103C5.05878 2.02755 4.92432 2.35486 4.89784 2.82528C4.83616 3.92067 3.92061 4.83622 2.82523 4.8979C2.3548 4.92438 2.0275 5.05883 1.88097 5.31254C1.73453 5.56625 1.78179 5.91688 1.99402 6.33746C2.48831 7.31699 2.15324 8.56773 1.23539 9.16886C0.841249 9.42702 0.585938 9.70706 0.585938 10C0.585938 10.293 0.841249 10.573 1.23535 10.8311C2.1532 11.4323 2.48831 12.683 1.99402 13.6626C1.78179 14.0831 1.73453 14.4338 1.88097 14.6875C2.02746 14.9412 2.3548 15.0756 2.82515 15.1021C3.92062 15.1638 4.8362 16.0794 4.89788 17.1748C4.92436 17.6452 5.05878 17.9725 5.31249 18.1189C5.5662 18.2654 5.91686 18.2182 6.33748 18.0059C7.31697 17.5116 8.56767 17.8468 9.1688 18.7646C9.42696 19.1588 9.707 19.4141 9.99997 19.4141C10.2929 19.4141 10.573 19.1588 10.8311 18.7646C11.4323 17.8468 12.683 17.5116 13.6625 18.0059C14.0831 18.2182 14.4337 18.2654 14.6875 18.1189C14.9412 17.9725 15.0756 17.6452 15.1021 17.1748C15.1637 16.0794 16.0793 15.1638 17.1748 15.1021C17.6451 15.0756 17.9725 14.9412 18.119 14.6875C18.2654 14.4338 18.2181 14.0831 18.0059 13.6626C17.5116 12.683 17.8467 11.4323 18.7646 10.8311C19.1587 10.573 19.414 10.293 19.414 10Z" stroke="black" stroke-width="1.5" stroke-miterlimit="10"/>
<path d="M8.82812 6.48438C8.82812 7.13156 8.30343 7.65625 7.65625 7.65625C7.00906 7.65625 6.48438 7.13156 6.48438 6.48438C6.48438 5.83719 7.00906 5.31251 7.65625 5.31251C8.30343 5.31251 8.82812 5.83719 8.82812 6.48438Z" stroke="black" stroke-width="1.5" stroke-miterlimit="10"/>
<path d="M13.5156 13.5156C13.5156 14.1628 12.9909 14.6875 12.3437 14.6875C11.6965 14.6875 11.1718 14.1628 11.1718 13.5156C11.1718 12.8684 11.6965 12.3438 12.3437 12.3438C12.9909 12.3438 13.5156 12.8684 13.5156 13.5156Z" stroke="black" stroke-width="1.5" stroke-miterlimit="10"/>
<path d="M13.5156 5.31253L6.48438 14.6875" stroke="black" stroke-width="1.5" stroke-miterlimit="10"/>
</g>
</g>
<defs>
<clipPath id="clip0_300_1702">
<rect width="20" height="20" fill="white"/>
</clipPath>
</defs>
</svg>
