<svg width="100" height="100" viewBox="0 0 100 100" fill="none" xmlns="http://www.w3.org/2000/svg">
<g clip-path="url(#clip0_156_1220)">
<g clip-path="url(#clip1_156_1220)">
<path d="M50.7854 14.1811C50.9592 13.5561 51.0628 12.9096 51.0881 12.2436C51.1663 10.1323 50.4377 8.13813 49.1233 6.45453C49.1233 6.45453 47.6555 4.79557 46.4999 4C45.421 3.25725 43.4999 2.5 43.4999 2.5" stroke="#1E1E1E" stroke-width="2.94118" stroke-miterlimit="10" stroke-linecap="round" stroke-linejoin="round"/>
<path d="M25.6837 14.3668C25.3419 13.3863 25.1759 12.3531 25.215 11.2867C25.4259 5.60701 31.3869 1.21832 38.5314 1.48199C40.3146 1.5484 42.0021 1.89801 43.5295 2.47418" stroke="#1E1E1E" stroke-width="2.94118" stroke-miterlimit="10" stroke-linecap="round" stroke-linejoin="round"/>
<path d="M31.5005 67.0771V72.5617C31.5005 72.5979 31.4999 72.6367 31.4988 72.6781C31.4513 74.4436 30.1867 75.9418 28.4597 76.3112C25.8765 76.8635 22.0263 77.6926 21.2644 77.8907C18.2927 78.6629 15.0743 79.1727 12.5339 80.9938C9.06881 83.4776 7.35278 87.4012 7.35278 91.5936V98.5417" stroke="#1E1E1E" stroke-width="2.94118" stroke-miterlimit="10" stroke-linecap="round" stroke-linejoin="round"/>
<path d="M54.0159 77.5893C52.38 77.2354 49.7688 76.693 47.8569 76.2985C46.1172 75.9395 44.8333 74.4364 44.7915 72.6606C44.7907 72.6256 44.7903 72.5926 44.7903 72.5617V67.0771" stroke="#1E1E1E" stroke-width="2.94118" stroke-miterlimit="10" stroke-linecap="round" stroke-linejoin="round"/>
<path d="M60.1526 39.3946V33.1153C60.1526 20.9317 50.3401 10.9063 38.1565 10.9004C31.0627 10.8965 24.7541 14.2481 20.7287 19.4551C20.7287 19.4551 19.175 21.1904 18.4999 22.5004C17.9394 23.5881 17.4357 25.4473 17.4357 25.4473C16.5958 27.7755 16.1388 30.2872 16.1388 32.9044V39.8204" stroke="#1E1E1E" stroke-width="2.94118" stroke-miterlimit="10" stroke-linecap="round" stroke-linejoin="round"/>
<path d="M38.1453 21.8029V11.334" stroke="#1E1E1E" stroke-width="2.94118" stroke-miterlimit="10" stroke-linecap="round" stroke-linejoin="round"/>
<path d="M20.0595 52.1799C16.1124 51.2172 13.1827 47.6584 13.1827 43.4158C13.1827 41.4338 14.7898 39.8271 16.7722 39.8271H20.0597" stroke="#1E1E1E" stroke-width="2.94118" stroke-miterlimit="10" stroke-linecap="round" stroke-linejoin="round"/>
<path d="M56.1832 39.8281H59.4707C61.4532 39.8281 63.0602 41.4348 63.0602 43.4168C63.0602 47.6596 60.1305 51.2182 56.1834 52.1809" stroke="#1E1E1E" stroke-width="2.94118" stroke-miterlimit="10" stroke-linecap="round" stroke-linejoin="round"/>
<path d="M22.6661 58.2287C22.2365 57.6662 21.8576 57.0665 21.5255 56.4376C20.5646 54.6036 20.0587 52.5626 20.0587 50.4903V39.8262H20.0607C21.0607 39.8262 21.9435 39.1876 22.2599 38.2403L23.6329 34.1211C24.5626 31.3321 26.4689 28.9707 29.0002 27.4746L38.1447 22.0645L47.3616 27.5196C49.8596 29.0157 51.7366 31.3594 52.6565 34.1211L54.0315 38.2403C54.1897 38.713 54.4885 39.1094 54.8753 39.3868C55.26 39.6641 55.7327 39.8262 56.2327 39.8262V39.8282V50.4903C56.2327 52.5626 55.7268 54.6036 54.7639 56.4376C54.1995 57.5119 53.4846 58.5021 52.6409 59.3732L46.0862 65.5353C43.8518 67.6252 40.9983 68.6721 38.1447 68.6721C35.2932 68.6721 32.4377 67.6252 30.2052 65.5353L27.5412 63.0392" stroke="#1E1E1E" stroke-width="2.94118" stroke-miterlimit="10" stroke-linecap="round" stroke-linejoin="round"/>
<path d="M39.8905 51.2373C38.7985 51.7936 37.5059 51.7936 36.4139 51.2373" stroke="#1E1E1E" stroke-width="2.94118" stroke-miterlimit="10" stroke-linecap="round" stroke-linejoin="round"/>
<path d="M41.47 57.8457C39.3857 59.1721 36.9189 59.1721 34.8345 57.8457" stroke="#1E1E1E" stroke-width="2.94118" stroke-miterlimit="10" stroke-linecap="round" stroke-linejoin="round"/>
<path d="M34.0368 38.9687C32.281 37.8815 29.4341 37.8815 27.6782 38.9687" stroke="#1E1E1E" stroke-width="2.94118" stroke-miterlimit="10" stroke-linecap="round" stroke-linejoin="round"/>
<path d="M48.6264 38.9687C46.8706 37.8815 44.0237 37.8815 42.2678 38.9687" stroke="#1E1E1E" stroke-width="2.94118" stroke-miterlimit="10" stroke-linecap="round" stroke-linejoin="round"/>
<path d="M45.447 45.7551V42.9346" stroke="#1E1E1E" stroke-width="2.94118" stroke-miterlimit="10" stroke-linecap="round" stroke-linejoin="round"/>
<path d="M30.8577 45.7551V42.9346" stroke="#1E1E1E" stroke-width="2.94118" stroke-miterlimit="10" stroke-linecap="round" stroke-linejoin="round"/>
<path d="M30.8577 74.6859C34.6514 78.4797 40.8024 78.4797 44.596 74.6859L45.072 74.21" stroke="#1E1E1E" stroke-width="2.94118" stroke-miterlimit="10" stroke-linecap="round" stroke-linejoin="round"/>
<path d="M25.193 77.0127L27.308 79.0785C33.3284 84.9586 42.9858 84.8092 48.8214 78.7459L50.4894 77.0127" stroke="#1E1E1E" stroke-width="2.94118" stroke-miterlimit="10" stroke-linecap="round" stroke-linejoin="round"/>
<path d="M12.5336 80.9932L15.4517 84.8932C17.7475 87.9614 18.9881 91.6901 18.9881 95.5219V98.5409" stroke="#1E1E1E" stroke-width="2.94118" stroke-miterlimit="10" stroke-linecap="round" stroke-linejoin="round"/>
<path d="M57.9349 90.8271C57.5177 92.3473 57.3025 93.9258 57.3025 95.5221V98.541" stroke="#1E1E1E" stroke-width="2.94118" stroke-miterlimit="10" stroke-linecap="round" stroke-linejoin="round"/>
<path d="M82.9105 96.2658C80.182 97.7189 77.0667 98.5412 73.7601 98.5412C62.9866 98.5412 54.2542 89.8087 54.2542 79.0352C54.2542 68.2618 62.9866 59.5293 73.7601 59.5293C84.5336 59.5293 93.266 68.2618 93.266 79.0352C93.266 84.0294 91.3891 88.5861 88.2992 92.0372C88.2992 92.0372 87.0249 93.6752 85.9999 94.5002C84.9385 95.3545 82.9907 96.2658 82.9907 96.2658" stroke="#1E1E1E" stroke-width="2.94118" stroke-miterlimit="10" stroke-linecap="round" stroke-linejoin="round"/>
<path d="M66.7999 79.7476L70.0861 83.0338C72.2921 85.3511 73.1542 84.489 74.8369 83.0312L83.2929 74.5752" stroke="#1E1E1E" stroke-width="2.94118" stroke-miterlimit="10" stroke-linecap="round" stroke-linejoin="round"/>
</g>
</g>
<defs>
<clipPath id="clip0_156_1220">
<rect width="100" height="100" fill="white"/>
</clipPath>
<clipPath id="clip1_156_1220">
<rect width="100" height="100" fill="white"/>
</clipPath>
</defs>
</svg>
