<svg width="14" height="14" viewBox="0 0 14 14" fill="none" xmlns="http://www.w3.org/2000/svg">
<g clip-path="url(#clip0_2005_757)">
<path d="M6.72283 1.33901C6.74839 1.28737 6.78788 1.24389 6.83684 1.21349C6.8858 1.1831 6.94228 1.16699 6.99991 1.16699C7.05754 1.16699 7.11402 1.1831 7.16298 1.21349C7.21194 1.24389 7.25143 1.28737 7.27699 1.33901L8.62449 4.06843C8.71326 4.24808 8.8443 4.4035 9.00636 4.52136C9.16842 4.63922 9.35665 4.716 9.55491 4.7451L12.5684 5.1861C12.6255 5.19437 12.6792 5.21846 12.7233 5.25563C12.7674 5.2928 12.8002 5.34158 12.8181 5.39645C12.8359 5.45132 12.8381 5.51008 12.8243 5.5661C12.8104 5.62212 12.7812 5.67315 12.7399 5.71343L10.5606 7.8356C10.4169 7.97566 10.3093 8.14855 10.2472 8.33938C10.1851 8.53022 10.1704 8.73328 10.2042 8.9311L10.7187 11.9294C10.7287 11.9865 10.7226 12.0453 10.7009 12.099C10.6792 12.1527 10.6428 12.1993 10.5959 12.2333C10.549 12.2674 10.4935 12.2876 10.4357 12.2916C10.3778 12.2956 10.3201 12.2833 10.2689 12.2561L7.57508 10.8398C7.39758 10.7466 7.2001 10.6979 6.99962 10.6979C6.79914 10.6979 6.60166 10.7466 6.42416 10.8398L3.73091 12.2561C3.67977 12.2832 3.62206 12.2953 3.56434 12.2912C3.50662 12.2871 3.45121 12.2669 3.40442 12.2329C3.35762 12.1989 3.32131 12.1524 3.29963 12.0987C3.27794 12.0451 3.27174 11.9864 3.28174 11.9294L3.79566 8.93168C3.82961 8.73377 3.8149 8.53058 3.75281 8.33962C3.69071 8.14867 3.5831 7.97569 3.43924 7.8356L1.25991 5.71401C1.21826 5.67378 1.18874 5.62266 1.17472 5.56647C1.1607 5.51029 1.16275 5.45129 1.18062 5.39621C1.1985 5.34113 1.23148 5.29217 1.27582 5.25492C1.32016 5.21767 1.37407 5.19362 1.43141 5.18551L4.44433 4.7451C4.64281 4.71622 4.8313 4.63955 4.99358 4.52167C5.15586 4.4038 5.28707 4.24826 5.37591 4.06843L6.72283 1.33901Z" fill="#FF9800" stroke="#FF9800" stroke-width="1.5" stroke-linecap="round" stroke-linejoin="round"/>
</g>
<defs>
<clipPath id="clip0_2005_757">
<rect width="14" height="14" fill="white"/>
</clipPath>
</defs>
</svg>
