<svg width="100" height="100" viewBox="0 0 100 100" fill="none" xmlns="http://www.w3.org/2000/svg">
<g clip-path="url(#clip0_156_1208)">
<path d="M60.0922 77.6237C80.975 77.6237 97.9039 60.6947 97.9039 39.8118C97.9039 18.9289 80.975 2 60.0922 2C39.2093 2 22.2804 18.9289 22.2804 39.8118C22.2804 60.6947 39.2093 77.6237 60.0922 77.6237Z" stroke="#1E1E1E" stroke-width="2.94118" stroke-miterlimit="10" stroke-linecap="round" stroke-linejoin="round"/>
<path d="M39.9078 97.9996C60.7907 97.9996 77.7196 81.0707 77.7196 60.1878C77.7196 39.3049 60.7907 22.376 39.9078 22.376C19.025 22.376 2.09607 39.3049 2.09607 60.1878C2.09607 81.0707 19.025 97.9996 39.9078 97.9996Z" stroke="#1E1E1E" stroke-width="2.94118" stroke-miterlimit="10" stroke-linecap="round" stroke-linejoin="round"/>
<path d="M26.0312 55.5711L45.3306 36.2715L75.7771 5.8252" stroke="#1E1E1E" stroke-width="2.94118" stroke-miterlimit="10" stroke-linecap="round" stroke-linejoin="round"/>
<path d="M60.8738 2.42773L35.5114 27.79L22.4905 40.8111" stroke="#1E1E1E" stroke-width="2.94118" stroke-miterlimit="10" stroke-linecap="round" stroke-linejoin="round"/>
<path d="M44.5575 73.6468L93.965 24.2393" stroke="#1E1E1E" stroke-width="2.94118" stroke-miterlimit="10" stroke-linecap="round" stroke-linejoin="round"/>
<path d="M55.2545 44.6486L86.8286 13.0742" stroke="#1E1E1E" stroke-width="2.94118" stroke-miterlimit="10" stroke-linecap="round" stroke-linejoin="round"/>
<path d="M33.3555 66.5483L42.8334 57.0703" stroke="#1E1E1E" stroke-width="2.94118" stroke-miterlimit="10" stroke-linecap="round" stroke-linejoin="round"/>
<path d="M59.0919 77.4127L97.4752 39.0293" stroke="#1E1E1E" stroke-width="2.94118" stroke-miterlimit="10" stroke-linecap="round" stroke-linejoin="round"/>
<ellipse cx="49.0557" cy="50.8487" rx="1.95122" ry="1.95122" fill="#1E1E1E"/>
</g>
<defs>
<clipPath id="clip0_156_1208">
<rect width="100" height="100" fill="white"/>
</clipPath>
</defs>
</svg>
