<svg width="32" height="32" viewBox="0 0 32 32" fill="none" xmlns="http://www.w3.org/2000/svg">
<g clip-path="url(#clip0_41_4583)">
<mask id="mask0_41_4583" style="mask-type:luminance" maskUnits="userSpaceOnUse" x="0" y="0" width="32" height="32">
<path d="M31.5 31.5V0.5H0.5V31.5H31.5Z" fill="white" stroke="white"/>
</mask>
<g mask="url(#mask0_41_4583)">
<path d="M24.5977 24.8291C24.6366 24.7912 24.6758 24.7539 24.7144 24.7153C24.753 24.6766 24.7905 24.6372 24.8286 24.5982C24.7485 24.6719 24.6714 24.749 24.5977 24.8291Z" stroke="black" stroke-miterlimit="10" stroke-linecap="round" stroke-linejoin="round"/>
<path d="M13.2636 0.868089C6.0778 2.15896 0.625 8.44275 0.625 16C0.625 24.4913 7.50873 31.375 16 31.375C18.9099 31.375 21.6312 30.5663 23.9512 29.1619C23.7049 28.6506 23.5668 28.0769 23.5668 27.4713C23.5668 26.452 23.9578 25.5242 24.5976 24.8288C19.7765 29.5263 12.0595 29.489 7.28498 24.7144C2.47249 19.9019 2.47249 12.0982 7.28561 7.28507C12.0981 2.47258 19.9018 2.47258 24.7149 7.2857C29.4888 12.0595 29.5262 19.7762 24.8286 24.5979C25.5239 23.958 26.4517 23.5669 27.4712 23.5669C28.0768 23.5669 28.6505 23.705 29.1618 23.9513C30.5662 21.6313 31.3749 18.91 31.3749 16C31.3749 8.44144 25.9202 2.15677 18.7326 0.86734" stroke="black" stroke-miterlimit="10" stroke-linecap="round" stroke-linejoin="round"/>
<path d="M8.0387 10.966L10.6403 19.1352C10.9273 20.0362 11.4941 20.8223 12.2583 21.3792L12.6796 21.6862C13.244 22.0975 13.8973 22.37 14.5866 22.4818C15.2759 22.5935 15.9818 22.5413 16.6472 22.3294L17.0695 22.1949C19.4092 21.4498 20.7018 18.9491 19.9567 16.6094L19.7327 15.9059C18.8095 13.007 16.1274 11.03 13.0851 11.0059L8.0387 10.966Z" stroke="black" stroke-miterlimit="10" stroke-linecap="round" stroke-linejoin="round"/>
<path d="M16.7143 25.1484V22.3086C16.2234 18.7781 14.4616 15.5587 11.7942 13.2763" stroke="black" stroke-miterlimit="10" stroke-linecap="round" stroke-linejoin="round"/>
<path d="M22.9709 9.29225L20.9703 15.5747C20.7954 16.124 20.4843 16.62 20.0659 17.0166C20.0359 16.881 19.9997 16.7447 19.9566 16.6097L19.7328 15.9066C19.4145 14.9041 18.8747 13.986 18.1535 13.2204C17.291 12.3041 16.1922 11.6291 14.9703 11.2791C15.9666 10.0772 17.4616 9.336 19.0903 9.3235L22.9709 9.29225Z" stroke="black" stroke-miterlimit="10" stroke-linecap="round" stroke-linejoin="round"/>
<path d="M18.1536 13.2197C18.6304 12.5223 19.1858 11.8818 19.8087 11.311" stroke="black" stroke-miterlimit="10" stroke-linecap="round" stroke-linejoin="round"/>
<path d="M31.3749 27.4711C31.3749 29.6272 29.6271 31.375 27.471 31.375C25.3149 31.375 23.5671 29.6272 23.5671 27.4711C23.5671 25.315 25.3149 23.5672 27.471 23.5672C29.6271 23.5672 31.3749 25.315 31.3749 27.4711Z" stroke="black" stroke-miterlimit="10" stroke-linecap="round" stroke-linejoin="round"/>
<path d="M25.9675 27.4744L26.9717 28.4785L28.8617 26.5886" stroke="black" stroke-miterlimit="10" stroke-linecap="round" stroke-linejoin="round"/>
</g>
</g>
<defs>
<clipPath id="clip0_41_4583">
<rect width="32" height="32" fill="white"/>
</clipPath>
</defs>
</svg>
