<svg width="16" height="16" viewBox="0 0 16 16" fill="none" xmlns="http://www.w3.org/2000/svg">
<path d="M15.3764 3.33575C14.7988 2.64919 13.7325 2.36914 11.6961 2.36914H4.30379C2.22075 2.36914 1.13636 2.66726 0.560981 3.3982C0 4.11087 0 5.16093 0 6.61425V9.38426C0 12.1998 0.6656 13.6293 4.30379 13.6293H11.6961C13.4621 13.6293 14.4407 13.3822 15.0738 12.7763C15.723 12.155 16 11.1405 16 9.38426V6.61425C16 5.08161 15.9566 4.02535 15.3764 3.33575ZM10.2721 8.38168L6.91525 10.1361C6.83659 10.1772 6.74864 10.1974 6.6599 10.1946C6.57116 10.1918 6.48464 10.1662 6.4087 10.1202C6.33277 10.0742 6.26998 10.0094 6.22642 9.93205C6.18286 9.85468 6.16 9.76739 6.16005 9.67861V6.18111C6.16006 6.09247 6.18289 6.00532 6.22636 5.92806C6.26983 5.8508 6.33246 5.78604 6.40823 5.74002C6.48399 5.694 6.57033 5.66826 6.65893 5.6653C6.74753 5.66234 6.83539 5.68224 6.91406 5.7231L10.2709 7.46617C10.3546 7.50967 10.4249 7.57532 10.474 7.65596C10.523 7.73661 10.549 7.82917 10.5492 7.92357C10.5493 8.01797 10.5235 8.11059 10.4747 8.19137C10.4258 8.27214 10.3557 8.33797 10.2721 8.38168Z" fill="#0E0E0E"/>
</svg>
